<?xml version="1.0" encoding="utf-8"?>
<!-- Generator: Adobe Illustrator 19.1.0, SVG Export Plug-In . SVG Version: 6.00 Build 0)  -->
<!DOCTYPE svg PUBLIC "-//W3C//DTD SVG 1.1//EN" "http://www.w3.org/Graphics/SVG/1.1/DTD/svg11.dtd">
<svg version="1.1" id="Layer_1" xmlns="http://www.w3.org/2000/svg" xmlns:xlink="http://www.w3.org/1999/xlink" x="0px" y="0px"
	 width="444px" height="195px" viewBox="262 285 444 195" enable-background="new 262 285 444 195" xml:space="preserve">
<g>
	<g>
		<g>
			<path fill="#E35131" d="M460,377.5c0,1.5,0.2,2.7,0.6,3.8c0.4,1,0.9,1.9,1.6,2.5s1.4,1.1,2.3,1.4s1.8,0.4,2.8,0.4
				s1.9-0.2,2.8-0.5s1.7-0.9,2.3-1.6c0.7-0.7,1.2-1.5,1.6-2.6c0.4-1,0.6-2.2,0.6-3.5V352c0-0.4,0.1-0.7,0.4-0.9
				c0.2-0.3,0.6-0.4,1-0.4h8.7c0.5,0,0.8,0.1,1.1,0.4c0.3,0.3,0.4,0.6,0.4,0.9v25.2c0,3.5-0.5,6.4-1.5,8.8s-2.4,4.3-4.1,5.7
				c-1.7,1.4-3.7,2.5-6,3.1s-4.7,0.9-7.2,0.9s-4.9-0.3-7.2-1c-2.3-0.6-4.3-1.7-6-3.2s-3.1-3.4-4.1-5.7c-1-2.4-1.5-5.3-1.5-8.7v-25.2
				c0-0.3,0.1-0.6,0.3-0.9s0.5-0.4,0.8-0.4h8.9c0.3,0,0.6,0.1,0.9,0.4c0.3,0.2,0.5,0.6,0.5,0.9L460,377.5L460,377.5z"/>
			<path fill="#E35131" d="M492,357.8c0.3-0.2,0.5-0.4,0.8-0.4c0.3-0.1,0.6-0.1,0.8-0.1h4.5c0.4,0,0.7,0.1,0.9,0.2
				c0.3,0.1,0.5,0.3,0.7,0.5s0.3,0.5,0.4,0.7c0.1,0.3,0.2,0.6,0.3,0.9l0.9,3.8c0.3-0.6,0.7-1.3,1.3-2.1c0.6-0.8,1.3-1.5,2.2-2.2
				c0.9-0.7,1.9-1.3,3.1-1.7c1.2-0.5,2.6-0.7,4.2-0.7c2.3,0,4.3,0.4,6.2,1.3c1.9,0.9,3.4,2.1,4.7,3.6c1.3,1.5,2.3,3.3,3,5.3
				s1.1,4.2,1.1,6.5V393c0,0.8-0.2,1.3-0.5,1.7c-0.3,0.4-0.9,0.6-1.6,0.6h-6.9c-0.9,0-1.4-0.1-1.8-0.4c-0.3-0.3-0.5-0.9-0.5-1.7
				v-19.5c0-0.9-0.2-1.7-0.6-2.4c-0.4-0.8-0.9-1.4-1.5-2s-1.4-1.1-2.2-1.4c-0.8-0.3-1.6-0.5-2.5-0.5c-0.7,0-1.5,0.2-2.2,0.5
				s-1.4,0.8-2.1,1.3c-0.6,0.6-1.2,1.2-1.6,2s-0.7,1.6-0.7,2.5V393c0,0.3-0.1,0.7-0.2,1s-0.3,0.6-0.6,0.8c-0.3,0.2-0.5,0.3-0.7,0.3
				c-0.2,0.1-0.5,0.1-0.8,0.1h-6.8c-0.9,0-1.5-0.2-1.9-0.6s-0.6-1-0.6-1.7v-33.4c0-0.4,0.1-0.7,0.3-1c0.2-0.3,0.4-0.6,0.7-0.7
				L492,357.8z"/>
			<path fill="#E35131" d="M533.2,344.5c0-0.8,0.2-1.4,0.5-1.8c0.4-0.3,0.9-0.5,1.7-0.5h6.9c0.7,0,1.3,0.2,1.7,0.5
				c0.4,0.3,0.6,0.9,0.6,1.8v5.8c0,0.2-0.1,0.5-0.2,0.8s-0.3,0.5-0.5,0.8s-0.4,0.5-0.7,0.6c-0.3,0.2-0.6,0.3-1,0.3h-6.9
				c-1.5,0-2.2-0.8-2.2-2.5v-5.8H533.2z M533.2,359.6c0-0.6,0.2-1.2,0.5-1.6c0.4-0.5,0.9-0.7,1.7-0.7h6.8c0.2,0,0.5,0.1,0.8,0.2
				s0.5,0.3,0.8,0.5c0.2,0.2,0.4,0.5,0.6,0.7c0.2,0.3,0.3,0.6,0.3,1V393c0,0.8-0.2,1.3-0.6,1.7c-0.4,0.4-1,0.6-1.8,0.6h-6.8
				c-1.5,0-2.2-0.8-2.2-2.3L533.2,359.6L533.2,359.6z"/>
			<path fill="#E35131" d="M575,383.5c0.3-0.2,0.5-0.3,0.8-0.4c0.2,0,0.4-0.1,0.6-0.1c0.3,0,0.6,0.1,0.9,0.2s0.6,0.4,0.9,0.9
				l3.3,5.1c0.1,0.2,0.2,0.3,0.3,0.5c0.1,0.2,0.1,0.4,0.1,0.5c0,0.5-0.1,0.8-0.4,1.1c-0.3,0.3-0.6,0.5-0.9,0.8
				c-1.6,1.1-3.4,2-5.4,2.7c-1.9,0.7-4,1-6.2,1c-1.8,0-3.5-0.2-5.2-0.7c-1.7-0.5-3.2-1.1-4.6-2c-1.4-0.8-2.7-1.9-3.9-3
				c-1.2-1.2-2.2-2.5-3-4c-0.8-1.5-1.5-3-2-4.7s-0.7-3.4-0.7-5.3c0-1.8,0.2-3.6,0.7-5.3c0.5-1.7,1.1-3.3,2-4.7
				c0.8-1.4,1.9-2.8,3-3.9c1.2-1.2,2.5-2.2,3.9-3s3-1.5,4.6-1.9c1.7-0.5,3.4-0.7,5.2-0.7c2.2,0,4.2,0.3,6,0.9
				c1.8,0.6,3.6,1.4,5.2,2.6l-0.1-0.1c0.4,0.3,0.8,0.6,1,0.9c0.3,0.3,0.4,0.8,0.4,1.3c0,0.4-0.1,0.7-0.4,1.1l-2.7,4.5
				c-0.6,1-1.2,1.5-2,1.5c-0.2,0-0.4,0-0.7-0.1c-0.3-0.1-0.5-0.2-0.9-0.5c-0.9-0.6-1.8-1.1-2.8-1.4c-1-0.4-2.1-0.6-3.2-0.6
				c-1.3,0-2.4,0.3-3.5,0.8c-1.1,0.5-2,1.2-2.7,2.1c-0.7,0.9-1.3,1.9-1.7,3c-0.4,1.2-0.6,2.4-0.6,3.6c0,1.3,0.2,2.5,0.6,3.7
				c0.4,1.1,1,2.1,1.7,3c0.7,0.8,1.6,1.5,2.7,2c1.1,0.5,2.2,0.7,3.5,0.7c1.1,0,2.2-0.2,3.2-0.6C573.1,384.6,574.1,384.1,575,383.5z"
				/>
			<path fill="#E35131" d="M584,376.3c0-1.8,0.2-3.6,0.7-5.3c0.5-1.7,1.1-3.3,2-4.7c0.8-1.4,1.9-2.8,3-3.9c1.2-1.2,2.5-2.2,4-3
				s3-1.5,4.7-1.9c1.7-0.5,3.4-0.7,5.3-0.7c2.7,0,5.3,0.5,7.6,1.5c2.4,1,4.5,2.4,6.2,4.2c1.8,1.8,3.2,3.8,4.2,6.2
				c1,2.4,1.5,5,1.5,7.7c0,1.8-0.2,3.6-0.7,5.3c-0.5,1.7-1.1,3.3-2,4.7c-0.8,1.5-1.9,2.8-3,4c-1.2,1.2-2.5,2.2-4,3s-3,1.5-4.7,2
				s-3.4,0.7-5.2,0.7s-3.6-0.2-5.3-0.7s-3.3-1.1-4.7-2c-1.5-0.8-2.8-1.9-4-3c-1.2-1.2-2.2-2.5-3-4s-1.5-3-2-4.7
				C584.2,379.8,584,378.1,584,376.3z M594.9,376.3c0,1.3,0.2,2.5,0.6,3.7c0.4,1.1,1,2.1,1.7,3c0.7,0.8,1.7,1.5,2.7,2
				c1.1,0.5,2.3,0.7,3.6,0.7s2.5-0.2,3.5-0.7s1.9-1.2,2.7-2c0.7-0.8,1.3-1.8,1.7-3c0.4-1.1,0.6-2.4,0.6-3.7c0-1.3-0.2-2.5-0.6-3.6
				c-0.4-1.2-0.9-2.2-1.7-3c-0.7-0.9-1.6-1.6-2.7-2.1c-1-0.5-2.2-0.8-3.5-0.8s-2.5,0.3-3.6,0.8c-1.1,0.5-2,1.2-2.7,2.1
				c-0.7,0.9-1.3,1.9-1.7,3S594.9,375,594.9,376.3z"/>
			<path fill="#E35131" d="M628,359.5c0-0.3,0.1-0.7,0.2-1s0.3-0.6,0.6-0.7c0.5-0.3,1.1-0.5,1.6-0.5h4.5c0.4,0,0.7,0.1,0.9,0.2
				s0.4,0.3,0.6,0.5c0.1,0.2,0.3,0.5,0.4,0.7c0.1,0.3,0.2,0.6,0.4,0.8c0,0.1,0.1,0.3,0.2,0.6c0.1,0.3,0.2,0.6,0.4,1
				c0.1,0.4,0.3,0.7,0.4,1c0.1,0.3,0.2,0.5,0.3,0.6c0.6-0.7,1.2-1.4,1.7-2.1s1.1-1.4,1.7-2s1.3-1.1,2.1-1.5s1.7-0.6,2.7-0.6
				c1.1,0,2,0.1,2.9,0.2c0.8,0.2,1.6,0.4,2.4,0.7c0.8,0.3,1.5,0.7,2.3,1.2c0.7,0.5,1.6,1,2.4,1.7c1.4,0.7,1.6,1.8,0.8,3.3l-2.7,4.6
				c-0.4,0.6-0.9,1-1.5,1.1s-1.2,0.1-1.9-0.3c-0.9-0.8-1.7-1.5-2.6-1.9c-0.9-0.4-1.9-0.6-3-0.6c-0.8,0-1.5,0.1-2,0.3
				c-0.6,0.2-1.1,0.5-1.6,0.9s-0.9,0.9-1.3,1.4c-0.4,0.6-0.8,1.2-1.3,1.9v21.6c0,0.8-0.2,1.3-0.6,1.7c-0.4,0.4-1,0.6-1.8,0.6h-6.7
				c-1.6,0-2.3-0.8-2.3-2.3v-33.1H628z"/>
			<path fill="#E35131" d="M662,357.8c0.3-0.2,0.5-0.4,0.8-0.4c0.3-0.1,0.6-0.1,0.8-0.1h4.5c0.4,0,0.7,0.1,0.9,0.2
				c0.3,0.1,0.5,0.3,0.7,0.5s0.3,0.5,0.4,0.7c0.1,0.3,0.2,0.6,0.3,0.9l0.9,3.8c0.3-0.6,0.7-1.3,1.3-2.1c0.6-0.8,1.3-1.5,2.2-2.2
				s1.9-1.3,3.1-1.7c1.2-0.5,2.6-0.7,4.2-0.7c2.3,0,4.3,0.4,6.2,1.3s3.4,2.1,4.7,3.6s2.3,3.3,3,5.3s1.1,4.2,1.1,6.5V393
				c0,0.8-0.2,1.3-0.5,1.7c-0.3,0.4-0.9,0.6-1.6,0.6h-6.9c-0.9,0-1.4-0.1-1.8-0.4c-0.3-0.3-0.5-0.9-0.5-1.7v-19.5
				c0-0.9-0.2-1.7-0.6-2.4c-0.4-0.8-0.9-1.4-1.5-2s-1.4-1.1-2.2-1.4s-1.6-0.5-2.5-0.5c-0.7,0-1.5,0.2-2.2,0.5s-1.4,0.8-2.1,1.3
				c-0.6,0.6-1.2,1.2-1.6,2c-0.4,0.8-0.7,1.6-0.7,2.5V393c0,0.3-0.1,0.7-0.2,1c-0.1,0.3-0.3,0.6-0.6,0.8c-0.3,0.2-0.5,0.3-0.7,0.3
				c-0.2,0.1-0.5,0.1-0.8,0.1h-6.8c-0.9,0-1.5-0.2-1.9-0.6s-0.6-1-0.6-1.7v-33.4c0-0.4,0.1-0.7,0.3-1s0.4-0.6,0.7-0.7L662,357.8z"/>
		</g>
		<g>
			<g opacity="0.65">
				<g>
					<path d="M604.6,421.7h2.8c0.4,0,0.8,0,1.2-0.1s0.7-0.2,1-0.4c0.3-0.2,0.6-0.4,0.9-0.6c0.3-0.2,0.5-0.5,0.7-0.8s0.3-0.6,0.4-1
						c0.1-0.4,0.1-0.7,0.1-1.1s-0.1-0.8-0.2-1.1c-0.1-0.4-0.2-0.7-0.4-1s-0.4-0.6-0.7-0.8c-0.3-0.3-0.6-0.5-0.9-0.6
						c-0.3-0.2-0.7-0.3-1-0.4c-0.4-0.1-0.7-0.1-1.1-0.1h-2.8V421.7z M606.9,421h-1.4v-6.8h1.7c0.5,0,0.9,0.1,1.3,0.2
						c0.4,0.2,0.8,0.4,1.1,0.7c0.3,0.3,0.6,0.7,0.8,1.1s0.3,0.9,0.3,1.4s-0.1,0.9-0.2,1.3c-0.2,0.4-0.4,0.8-0.7,1
						c-0.3,0.3-0.6,0.5-1,0.7s-0.8,0.3-1.2,0.3c-0.1,0-0.2,0-0.3,0C607.2,421,607.1,421,606.9,421z"/>
				</g>
				<g>
					<path d="M617.8,421.7h0.8l-2.9-4.3l2.7-4h-0.8l-2.3,3.4l-2.3-3.4h-0.8l2.7,4l-2.8,4.3h0.9l2.4-3.6L617.8,421.7z"/>
				</g>
			</g>
			<g>
				<path d="M493.6,410.4c-3.4,0-7.1,2.2-7.1,7.1s3.7,7.2,7.1,7.2s7.1-2.2,7.1-7.2C500.6,412.6,497,410.4,493.6,410.4z M493.6,421.7
					c-1.9,0-3.9-1.4-3.9-4.2c0-2.7,2-4.2,3.9-4.2s3.9,1.4,3.9,4.2C497.5,420.3,495.5,421.7,493.6,421.7z"/>
			</g>
			<g>
				<path d="M513.8,424.4h0.9v-13.8h-3.2v7.4l-8-7.5h-0.9v13.8h3.2V417L513.8,424.4z"/>
			</g>
			<g>
				<path d="M517.4,424.5h3.2V417l8,7.4h0.9v-13.8h-3.2v7.4l-8-7.5h-0.9V424.5z"/>
			</g>
			<g>
				<path d="M532.3,424.4h8.9v-2.7h-5.9v-3.1h5.2V416h-5.2v-2.6h5.7v-2.7h-8.7V424.4z"/>
			</g>
			<g>
				<path d="M560.2,424.4h3.1v-11.1h4.2v-2.7h-11.2v2.7h3.9V424.4z"/>
			</g>
			<g>
				<path d="M569.5,424.4h3v-13.8h-3.1L569.5,424.4z"/>
			</g>
			<g>
				<path d="M580.4,424.6h1.2l6-13.7v-0.2h-3l-3.3,8.1h-0.5l-3.4-8.1h-3v0.2L580.4,424.6z"/>
			</g>
			<g>
				<path d="M589.2,424.4h8.9v-2.7h-5.9v-3.1h5.2V416h-5.2v-2.6h5.7v-2.7h-8.7V424.4z"/>
			</g>
			<g>
				<path d="M480.9,410.5c-3.4,0-7,2.2-7.1,7c0,4.8,3.7,7,7,7v0.3v-0.3c1.9,0,3.6-0.6,4.8-1.8l-2-2c-0.4,0.3-1.4,1-2.8,1
					c-2.2,0-3.9-1.8-3.9-4.3c0-2.6,1.5-4.3,3.9-4.3c1.4,0,2.4,0.8,2.9,1.2l2-2C484.6,411.2,482.9,410.5,480.9,410.5z"/>
			</g>
			<g>
				<path d="M550,410.5c-3.4,0-7,2.2-7.1,7c0,4.8,3.7,7,7,7v0.3v-0.3c1.9,0,3.6-0.6,4.8-1.8l-2-2c-0.4,0.3-1.4,1-2.8,1
					c-2.2,0-3.9-1.8-3.9-4.3c0-2.6,1.5-4.3,3.9-4.3c1.4,0,2.4,0.8,2.9,1.2l2-2C553.7,411.2,552,410.5,550,410.5z"/>
			</g>
		</g>
		<g>
			<path fill="#58595B" d="M451.2,413.6c0-0.1,0-0.1,0.1-0.2c0,0,0.1-0.1,0.2-0.1h3.4c0.3,0,0.6,0.1,0.8,0.2
				c0.3,0.1,0.5,0.3,0.7,0.5s0.4,0.4,0.5,0.7c0.1,0.3,0.2,0.6,0.2,0.9s0,0.5-0.1,0.7s-0.2,0.4-0.3,0.6c0.2,0.2,0.4,0.5,0.6,0.8
				c0.1,0.3,0.2,0.6,0.2,1c0,0.3-0.1,0.6-0.2,0.9s-0.3,0.5-0.5,0.7s-0.4,0.4-0.7,0.5c-0.3,0.1-0.6,0.2-0.9,0.2h-3.7
				c-0.1,0-0.1,0-0.2-0.1c0,0-0.1-0.1-0.1-0.2V413.6z M455.1,415.6c0-0.1,0-0.2-0.1-0.3c0-0.1-0.1-0.2-0.2-0.2
				c-0.1-0.1-0.2-0.1-0.2-0.2c-0.1,0-0.2-0.1-0.3-0.1h-1.1v1.5h1.1c0.1,0,0.2,0,0.3-0.1c0.1,0,0.2-0.1,0.2-0.2
				c0.1-0.1,0.1-0.1,0.2-0.2C455,415.8,455.1,415.7,455.1,415.6z M455.3,418.5c0-0.1,0-0.2-0.1-0.3c0-0.1-0.1-0.2-0.2-0.3
				c-0.1-0.1-0.2-0.1-0.2-0.2c-0.1-0.1-0.2-0.1-0.3-0.1h-1.3v1.7h1.3c0.1,0,0.2,0,0.3-0.1c0.1,0,0.2-0.1,0.2-0.2s0.1-0.2,0.2-0.3
				C455.3,418.8,455.3,418.7,455.3,418.5z"/>
			<path fill="#58595B" d="M461.2,416.1l1.2-2.6c0,0,0-0.1,0.1-0.1l0,0l0,0c0,0,0,0,0.1,0h2c0,0,0,0,0.1,0c0,0,0,0,0,0.1
				c0,0,0,0.1-0.1,0.1l-2.4,4.3v2.8c0,0.2-0.1,0.2-0.2,0.2h-1.5c-0.1,0-0.1,0-0.2-0.1c0,0-0.1-0.1-0.1-0.2v-2.9l-2.4-4.3l-0.1-0.1
				c0,0,0,0,0-0.1c0,0,0,0,0.1,0h2c0,0,0,0,0.1,0l0,0l0,0c0,0,0,0,0.1,0.1L461.2,416.1z"/>
		</g>
	</g>
	<g>
		<polygon fill="#E35131" points="345.7,476.4 266.5,429.5 267.5,337.5 347.7,292.3 426.9,339.2 425.9,431.2 		"/>
		<path fill="#FFFFFF" d="M345.7,476.5"/>
		<g>
			<polygon fill="#FFFFFF" points="358.6,388.3 367.7,392.8 360.5,383.7 			"/>
			<path fill="#FFFFFF" d="M384.4,364.5L384.4,364.5l0.1-0.1l25.5-25.8l-44.3,22.9l2.2-14l-9-10.7l-6.5,12.4l-13.2,1.7l0,0l-0.1,0.1
				l-32.9,4.3l0.2-2.8l-39.7,47v4.7l11.3-3.1l-10.4,29.1l2.6,1.6l11.3-31.6l2.4-0.7l4.8,32.8l-6.9,6.3l2.8,1.7l4.6-4.2l1.1,7.6
				l3.3,2l-6.8-47l14.2-3.9l73.2,65.4l2.8-1.6l-37.5-33.5l-4-19l24.8,22.6l0.2-0.3l1.2,5.6l20.2-0.7l4.6-6.2v-11.9l-15.6-37.4
				L384.4,364.5z M394.5,350l-10.9,11l-6.2-2.2L394.5,350z M373.7,360.8l7.5,2.6l-11.4,11.5l-4.2-10L373.7,360.8z M306,358.4
				l27.7-3.6l-29,20.1L306,358.4z M300.3,392l-30.1,8.2l32.6-38.6L300.3,392z M383.7,415.9v10.3l-3.2,4.2l-16.2,0.6l-6.2-14.7
				l1.7,7.8l-25.1-22.8l-1.1-5.4l4.5-6.3l-2.4-1.7l-5.3,7.4l1.6,7.6l0,0l0,0l4,19.1l-32.7-29.2l1.5-14.2l35.5-24.6l10.5-1.4
				l-0.9,8.2l9.7-18.5l5.3,6.2l-2.6,16L383.7,415.9z"/>
		</g>
	</g>
</g>
</svg>
