<?xml version="1.0" encoding="utf-8"?>
<!-- Generator: Adobe Illustrator 21.0.0, SVG Export Plug-In . SVG Version: 6.00 Build 0)  -->
<!DOCTYPE svg PUBLIC "-//W3C//DTD SVG 1.1//EN" "http://www.w3.org/Graphics/SVG/1.1/DTD/svg11.dtd">
<svg version="1.1" id="Layer_1" xmlns="http://www.w3.org/2000/svg" xmlns:xlink="http://www.w3.org/1999/xlink" x="0px" y="0px"
	 width="248.5px" height="287.5px" viewBox="0 0 248.5 287.5" style="enable-background:new 0 0 248.5 287.5;" xml:space="preserve"
	>
<style type="text/css">
	.st0{fill:#E35131;}
	.st1{opacity:0.65;}
	.st2{fill:#58595B;}
	.st3{fill:#FFFFFF;}
</style>
<g>
	<g>
		<path class="st0" d="M11.4,240.2c0,1.5,0.2,2.7,0.6,3.8c0.4,1,0.9,1.9,1.6,2.5s1.4,1.1,2.3,1.4s1.8,0.4,2.8,0.4s1.9-0.2,2.8-0.5
			s1.7-0.9,2.3-1.6c0.7-0.7,1.2-1.5,1.6-2.6c0.4-1,0.6-2.2,0.6-3.5v-25.4c0-0.4,0.1-0.7,0.4-0.9c0.2-0.3,0.6-0.4,1-0.4h8.7
			c0.5,0,0.8,0.1,1.1,0.4c0.3,0.3,0.4,0.6,0.4,0.9v25.2c0,3.5-0.5,6.4-1.5,8.8s-2.4,4.3-4.1,5.7c-1.7,1.4-3.7,2.5-6,3.1
			s-4.7,0.9-7.2,0.9s-4.9-0.3-7.2-1c-2.3-0.6-4.3-1.7-6-3.2s-3.1-3.4-4.1-5.7c-1-2.4-1.5-5.3-1.5-8.7v-25.2c0-0.3,0.1-0.6,0.3-0.9
			s0.5-0.4,0.8-0.4H10c0.3,0,0.6,0.1,0.9,0.4c0.3,0.2,0.5,0.6,0.5,0.9L11.4,240.2L11.4,240.2z"/>
		<path class="st0" d="M43.4,220.5c0.3-0.2,0.5-0.4,0.8-0.4c0.3-0.1,0.6-0.1,0.8-0.1h4.5c0.4,0,0.7,0.1,0.9,0.2
			c0.3,0.1,0.5,0.3,0.7,0.5s0.3,0.5,0.4,0.7c0.1,0.3,0.2,0.6,0.3,0.9l0.9,3.8c0.3-0.6,0.7-1.3,1.3-2.1c0.6-0.8,1.3-1.5,2.2-2.2
			c0.9-0.7,1.9-1.3,3.1-1.7c1.2-0.5,2.6-0.7,4.2-0.7c2.3,0,4.3,0.4,6.2,1.3s3.4,2.1,4.7,3.6s2.3,3.3,3,5.3s1.1,4.2,1.1,6.5v19.6
			c0,0.8-0.2,1.3-0.5,1.7c-0.3,0.4-0.9,0.6-1.6,0.6h-6.9c-0.9,0-1.4-0.1-1.8-0.4c-0.3-0.3-0.5-0.9-0.5-1.7v-19.5
			c0-0.9-0.2-1.7-0.6-2.4c-0.4-0.8-0.9-1.4-1.5-2s-1.4-1.1-2.2-1.4s-1.6-0.5-2.5-0.5c-0.7,0-1.5,0.2-2.2,0.5s-1.4,0.8-2.1,1.3
			c-0.6,0.6-1.2,1.2-1.6,2s-0.7,1.6-0.7,2.5v19.3c0,0.3-0.1,0.7-0.2,1s-0.3,0.6-0.6,0.8c-0.3,0.2-0.5,0.3-0.7,0.3
			c-0.2,0.1-0.5,0.1-0.8,0.1h-6.8c-0.9,0-1.5-0.2-1.9-0.6s-0.6-1-0.6-1.7v-33.4c0-0.4,0.1-0.7,0.3-1c0.2-0.3,0.4-0.6,0.7-0.7
			L43.4,220.5z"/>
		<path class="st0" d="M84.6,207.2c0-0.8,0.2-1.4,0.5-1.8c0.4-0.3,0.9-0.5,1.7-0.5h6.9c0.7,0,1.3,0.2,1.7,0.5s0.6,0.9,0.6,1.8v5.8
			c0,0.2-0.1,0.5-0.2,0.8s-0.3,0.5-0.5,0.8s-0.4,0.5-0.7,0.6c-0.3,0.2-0.6,0.3-1,0.3h-6.9c-1.5,0-2.2-0.8-2.2-2.5v-5.8L84.6,207.2
			L84.6,207.2z M84.6,222.3c0-0.6,0.2-1.2,0.5-1.6c0.4-0.5,0.9-0.7,1.7-0.7h6.8c0.2,0,0.5,0.1,0.8,0.2s0.5,0.3,0.8,0.5
			c0.2,0.2,0.4,0.5,0.6,0.7c0.2,0.3,0.3,0.6,0.3,1v33.3c0,0.8-0.2,1.3-0.6,1.7c-0.4,0.4-1,0.6-1.8,0.6h-6.8c-1.5,0-2.2-0.8-2.2-2.3
			L84.6,222.3L84.6,222.3z"/>
		<path class="st0" d="M126.4,246.2c0.3-0.2,0.5-0.3,0.8-0.4c0.2,0,0.4-0.1,0.6-0.1c0.3,0,0.6,0.1,0.9,0.2s0.6,0.4,0.9,0.9l3.3,5.1
			c0.1,0.2,0.2,0.3,0.3,0.5s0.1,0.4,0.1,0.5c0,0.5-0.1,0.8-0.4,1.1c-0.3,0.3-0.6,0.5-0.9,0.8c-1.6,1.1-3.4,2-5.4,2.7
			c-1.9,0.7-4,1-6.2,1c-1.8,0-3.5-0.2-5.2-0.7s-3.2-1.1-4.6-2c-1.4-0.8-2.7-1.9-3.9-3c-1.2-1.2-2.2-2.5-3-4s-1.5-3-2-4.7
			s-0.7-3.4-0.7-5.3c0-1.8,0.2-3.6,0.7-5.3c0.5-1.7,1.1-3.3,2-4.7c0.8-1.4,1.9-2.8,3-3.9c1.2-1.2,2.5-2.2,3.9-3s3-1.5,4.6-1.9
			c1.7-0.5,3.4-0.7,5.2-0.7c2.2,0,4.2,0.3,6,0.9s3.6,1.4,5.2,2.6l-0.1-0.1c0.4,0.3,0.8,0.6,1,0.9c0.3,0.3,0.4,0.8,0.4,1.3
			c0,0.4-0.1,0.7-0.4,1.1l-2.7,4.5c-0.6,1-1.2,1.5-2,1.5c-0.2,0-0.4,0-0.7-0.1s-0.5-0.2-0.9-0.5c-0.9-0.6-1.8-1.1-2.8-1.4
			c-1-0.4-2.1-0.6-3.2-0.6c-1.3,0-2.4,0.3-3.5,0.8s-2,1.2-2.7,2.1s-1.3,1.9-1.7,3c-0.4,1.2-0.6,2.4-0.6,3.6c0,1.3,0.2,2.5,0.6,3.7
			c0.4,1.1,1,2.1,1.7,3c0.7,0.8,1.6,1.5,2.7,2c1.1,0.5,2.2,0.7,3.5,0.7c1.1,0,2.2-0.2,3.2-0.6C124.5,247.3,125.5,246.8,126.4,246.2z
			"/>
		<path class="st0" d="M135.4,239c0-1.8,0.2-3.6,0.7-5.3c0.5-1.7,1.1-3.3,2-4.7c0.8-1.4,1.9-2.8,3-3.9c1.2-1.2,2.5-2.2,4-3
			s3-1.5,4.7-1.9c1.7-0.5,3.4-0.7,5.3-0.7c2.7,0,5.3,0.5,7.6,1.5c2.4,1,4.5,2.4,6.2,4.2c1.8,1.8,3.2,3.8,4.2,6.2
			c1,2.4,1.5,5,1.5,7.7c0,1.8-0.2,3.6-0.7,5.3c-0.5,1.7-1.1,3.3-2,4.7c-0.8,1.5-1.9,2.8-3,4c-1.2,1.2-2.5,2.2-4,3s-3,1.5-4.7,2
			s-3.4,0.7-5.2,0.7s-3.6-0.2-5.3-0.7s-3.3-1.1-4.7-2c-1.5-0.8-2.8-1.9-4-3c-1.2-1.2-2.2-2.5-3-4s-1.5-3-2-4.7
			C135.6,242.5,135.4,240.8,135.4,239z M146.3,239c0,1.3,0.2,2.5,0.6,3.7c0.4,1.1,1,2.1,1.7,3c0.7,0.8,1.7,1.5,2.7,2
			c1.1,0.5,2.3,0.7,3.6,0.7s2.5-0.2,3.5-0.7s1.9-1.2,2.7-2c0.7-0.8,1.3-1.8,1.7-3c0.4-1.1,0.6-2.4,0.6-3.7c0-1.3-0.2-2.5-0.6-3.6
			c-0.4-1.2-0.9-2.2-1.7-3c-0.7-0.9-1.6-1.6-2.7-2.1c-1-0.5-2.2-0.8-3.5-0.8s-2.5,0.3-3.6,0.8s-2,1.2-2.7,2.1s-1.3,1.9-1.7,3
			S146.3,237.7,146.3,239z"/>
		<path class="st0" d="M179.4,222.2c0-0.3,0.1-0.7,0.2-1s0.3-0.6,0.6-0.7c0.5-0.3,1.1-0.5,1.6-0.5h4.5c0.4,0,0.7,0.1,0.9,0.2
			s0.4,0.3,0.6,0.5c0.1,0.2,0.3,0.5,0.4,0.7c0.1,0.3,0.2,0.6,0.4,0.8c0,0.1,0.1,0.3,0.2,0.6c0.1,0.3,0.2,0.6,0.4,1
			c0.1,0.4,0.3,0.7,0.4,1c0.1,0.3,0.2,0.5,0.3,0.6c0.6-0.7,1.2-1.4,1.7-2.1s1.1-1.4,1.7-2s1.3-1.1,2.1-1.5s1.7-0.6,2.7-0.6
			c1.1,0,2,0.1,2.9,0.2c0.8,0.2,1.6,0.4,2.4,0.7c0.8,0.3,1.5,0.7,2.3,1.2c0.7,0.5,1.6,1,2.4,1.7c1.4,0.7,1.6,1.8,0.8,3.3l-2.7,4.6
			c-0.4,0.6-0.9,1-1.5,1.1s-1.2,0.1-1.9-0.3c-0.9-0.8-1.7-1.5-2.6-1.9c-0.9-0.4-1.9-0.6-3-0.6c-0.8,0-1.5,0.1-2,0.3
			c-0.6,0.2-1.1,0.5-1.6,0.9s-0.9,0.9-1.3,1.4c-0.4,0.6-0.8,1.2-1.3,1.9v21.6c0,0.8-0.2,1.3-0.6,1.7c-0.4,0.4-1,0.6-1.8,0.6h-6.7
			c-1.6,0-2.3-0.8-2.3-2.3v-33.1L179.4,222.2L179.4,222.2z"/>
		<path class="st0" d="M213.4,220.5c0.3-0.2,0.5-0.4,0.8-0.4c0.3-0.1,0.6-0.1,0.8-0.1h4.5c0.4,0,0.7,0.1,0.9,0.2
			c0.3,0.1,0.5,0.3,0.7,0.5s0.3,0.5,0.4,0.7c0.1,0.3,0.2,0.6,0.3,0.9l0.9,3.8c0.3-0.6,0.7-1.3,1.3-2.1c0.6-0.8,1.3-1.5,2.2-2.2
			s1.9-1.3,3.1-1.7c1.2-0.5,2.6-0.7,4.2-0.7c2.3,0,4.3,0.4,6.2,1.3s3.4,2.1,4.7,3.6s2.3,3.3,3,5.3s1.1,4.2,1.1,6.5v19.6
			c0,0.8-0.2,1.3-0.5,1.7c-0.3,0.4-0.9,0.6-1.6,0.6h-6.9c-0.9,0-1.4-0.1-1.8-0.4c-0.3-0.3-0.5-0.9-0.5-1.7v-19.5
			c0-0.9-0.2-1.7-0.6-2.4c-0.4-0.8-0.9-1.4-1.5-2s-1.4-1.1-2.2-1.4s-1.6-0.5-2.5-0.5c-0.7,0-1.5,0.2-2.2,0.5s-1.4,0.8-2.1,1.3
			c-0.6,0.6-1.2,1.2-1.6,2c-0.4,0.8-0.7,1.6-0.7,2.5v19.3c0,0.3-0.1,0.7-0.2,1c-0.1,0.3-0.3,0.6-0.6,0.8c-0.3,0.2-0.5,0.3-0.7,0.3
			c-0.2,0.1-0.5,0.1-0.8,0.1h-6.8c-0.9,0-1.5-0.2-1.9-0.6s-0.6-1-0.6-1.7v-33.4c0-0.4,0.1-0.7,0.3-1s0.4-0.6,0.7-0.7L213.4,220.5z"
			/>
	</g>
	<g>
		<g>
			<g class="st1">
				<g>
					<path d="M194,284.4h2.8c0.4,0,0.8,0,1.2-0.1s0.7-0.2,1-0.4c0.3-0.2,0.6-0.4,0.9-0.6c0.3-0.2,0.5-0.5,0.7-0.8s0.3-0.6,0.4-1
						c0.1-0.4,0.1-0.7,0.1-1.1s-0.1-0.8-0.2-1.1c-0.1-0.4-0.2-0.7-0.4-1s-0.4-0.6-0.7-0.8c-0.3-0.3-0.6-0.5-0.9-0.6
						c-0.3-0.2-0.7-0.3-1-0.4c-0.4-0.1-0.7-0.1-1.1-0.1H194V284.4z M196.3,283.7h-1.4v-6.8h1.7c0.5,0,0.9,0.1,1.3,0.2
						c0.4,0.2,0.8,0.4,1.1,0.7c0.3,0.3,0.6,0.7,0.8,1.1s0.3,0.9,0.3,1.4s-0.1,0.9-0.2,1.3c-0.2,0.4-0.4,0.8-0.7,1
						c-0.3,0.3-0.6,0.5-1,0.7s-0.8,0.3-1.2,0.3c-0.1,0-0.2,0-0.3,0C196.6,283.7,196.5,283.7,196.3,283.7z"/>
				</g>
				<g>
					<path d="M207.2,284.4h0.8l-2.9-4.3l2.7-4H207l-2.3,3.4l-2.3-3.4h-0.8l2.7,4l-2.8,4.3h0.9l2.4-3.6L207.2,284.4z"/>
				</g>
			</g>
			<g>
				<path d="M83,273.1c-3.4,0-7.1,2.2-7.1,7.1s3.7,7.2,7.1,7.2s7.1-2.2,7.1-7.2C90,275.3,86.4,273.1,83,273.1z M83,284.4
					c-1.9,0-3.9-1.4-3.9-4.2c0-2.7,2-4.2,3.9-4.2s3.9,1.4,3.9,4.2C86.9,283,84.9,284.4,83,284.4z"/>
			</g>
			<g>
				<path d="M103.2,287.1h0.9v-13.8h-3.2v7.4l-8-7.5H92V287h3.2v-7.3L103.2,287.1z"/>
			</g>
			<g>
				<path d="M106.8,287.2h3.2v-7.5l8,7.4h0.9v-13.8h-3.2v7.4l-8-7.5h-0.9V287.2z"/>
			</g>
			<g>
				<path d="M121.7,287.1h8.9v-2.7h-5.9v-3.1h5.2v-2.6h-5.2v-2.6h5.7v-2.7h-8.7V287.1z"/>
			</g>
			<g>
				<path d="M149.6,287.1h3.1V276h4.2v-2.7h-11.2v2.7h3.9V287.1z"/>
			</g>
			<g>
				<path d="M158.9,287.1h3v-13.8h-3.1L158.9,287.1z"/>
			</g>
			<g>
				<path d="M169.8,287.3h1.2l6-13.7v-0.2h-3l-3.3,8.1h-0.5l-3.4-8.1h-3v0.2L169.8,287.3z"/>
			</g>
			<g>
				<path d="M178.6,287.1h8.9v-2.7h-5.9v-3.1h5.2v-2.6h-5.2v-2.6h5.7v-2.7h-8.7V287.1z"/>
			</g>
			<g>
				<path d="M70.3,273.2c-3.4,0-7,2.2-7.1,7c0,4.8,3.7,7,7,7v0.3v-0.3c1.9,0,3.6-0.6,4.8-1.8l-2-2c-0.4,0.3-1.4,1-2.8,1
					c-2.2,0-3.9-1.8-3.9-4.3c0-2.6,1.5-4.3,3.9-4.3c1.4,0,2.4,0.8,2.9,1.2l2-2C74,273.9,72.3,273.2,70.3,273.2z"/>
			</g>
			<g>
				<path d="M139.4,273.2c-3.4,0-7,2.2-7.1,7c0,4.8,3.7,7,7,7v0.3v-0.3c1.9,0,3.6-0.6,4.8-1.8l-2-2c-0.4,0.3-1.4,1-2.8,1
					c-2.2,0-3.9-1.8-3.9-4.3c0-2.6,1.5-4.3,3.9-4.3c1.4,0,2.4,0.8,2.9,1.2l2-2C143.1,273.9,141.4,273.2,139.4,273.2z"/>
			</g>
		</g>
		<g>
			<path class="st2" d="M40.6,276.3c0-0.1,0-0.1,0.1-0.2c0,0,0.1-0.1,0.2-0.1h3.4c0.3,0,0.6,0.1,0.8,0.2c0.3,0.1,0.5,0.3,0.7,0.5
				s0.4,0.4,0.5,0.7c0.1,0.3,0.2,0.6,0.2,0.9s0,0.5-0.1,0.7s-0.2,0.4-0.3,0.6c0.2,0.2,0.4,0.5,0.6,0.8c0.1,0.3,0.2,0.6,0.2,1
				c0,0.3-0.1,0.6-0.2,0.9s-0.3,0.5-0.5,0.7s-0.4,0.4-0.7,0.5c-0.3,0.1-0.6,0.2-0.9,0.2h-3.7c-0.1,0-0.1,0-0.2-0.1
				c0,0-0.1-0.1-0.1-0.2V276.3z M44.5,278.3c0-0.1,0-0.2-0.1-0.3c0-0.1-0.1-0.2-0.2-0.2c-0.1-0.1-0.2-0.1-0.2-0.2
				c-0.1,0-0.2-0.1-0.3-0.1h-1.1v1.5h1.1c0.1,0,0.2,0,0.3-0.1c0.1,0,0.2-0.1,0.2-0.2c0.1-0.1,0.1-0.1,0.2-0.2
				C44.4,278.5,44.5,278.4,44.5,278.3z M44.7,281.2c0-0.1,0-0.2-0.1-0.3c0-0.1-0.1-0.2-0.2-0.3c-0.1-0.1-0.2-0.1-0.2-0.2
				c-0.1-0.1-0.2-0.1-0.3-0.1h-1.3v1.7h1.3c0.1,0,0.2,0,0.3-0.1c0.1,0,0.2-0.1,0.2-0.2s0.1-0.2,0.2-0.3
				C44.7,281.5,44.7,281.4,44.7,281.2z"/>
			<path class="st2" d="M50.6,278.8l1.2-2.6c0,0,0-0.1,0.1-0.1l0,0l0,0c0,0,0,0,0.1,0h2c0,0,0,0,0.1,0c0,0,0,0,0,0.1
				c0,0,0,0.1-0.1,0.1l-2.4,4.3v2.8c0,0.2-0.1,0.2-0.2,0.2h-1.5c-0.1,0-0.1,0-0.2-0.1c0,0-0.1-0.1-0.1-0.2v-2.9l-2.4-4.3l-0.1-0.1
				c0,0,0,0,0-0.1c0,0,0,0,0.1,0h2c0,0,0,0,0.1,0l0,0l0,0c0,0,0,0,0.1,0.1L50.6,278.8z"/>
		</g>
	</g>
	<g>
		<polygon class="st0" points="123.3,184.1 44.1,137.2 45.1,45.2 125.3,0 204.5,46.9 203.5,138.9 		"/>
		<path class="st3" d="M123.3,184.2"/>
		<g>
			<polygon class="st3" points="136.2,96 145.3,100.5 138.1,91.4 			"/>
			<path class="st3" d="M162,72.2L162,72.2l0.1-0.1l25.5-25.8l-44.3,22.9l2.2-14l-9-10.7L130,56.9l-13.2,1.7l0,0l-0.1,0.1L83.8,63
				l0.2-2.8l-39.7,47v4.7l11.3-3.1l-10.4,29.1l2.6,1.6l11.3-31.6l2.4-0.7l4.8,32.8l-6.9,6.3l2.8,1.7l4.6-4.2l1.1,7.6l3.3,2l-6.8-47
				l14.2-3.9l73.2,65.4l2.8-1.6l-37.5-33.5l-4-19l24.8,22.6l0.2-0.3l1.2,5.6l20.2-0.7l4.6-6.2v-11.9l-15.6-37.4L162,72.2z
				 M172.1,57.7l-10.9,11l-6.2-2.2L172.1,57.7z M151.3,68.5l7.5,2.6l-11.4,11.5l-4.2-10L151.3,68.5z M83.6,66.1l27.7-3.6l-29,20.1
				L83.6,66.1z M77.9,99.7l-30.1,8.2l32.6-38.6L77.9,99.7z M161.3,123.6v10.3l-3.2,4.2l-16.2,0.6l-6.2-14.7l1.7,7.8L112.3,109
				l-1.1-5.4l4.5-6.3l-2.4-1.7L108,103l1.6,7.6l0,0l0,0l4,19.1l-32.7-29.2l1.5-14.2l35.5-24.6l10.5-1.4l-0.9,8.2l9.7-18.5l5.3,6.2
				l-2.6,16L161.3,123.6z"/>
		</g>
	</g>
</g>
</svg>
